<svg width="19" height="16" viewBox="0 0 19 16" fill="none" xmlns="http://www.w3.org/2000/svg">
<g filter="url(#filter0_d_952_250)">
<path fill-rule="evenodd" clip-rule="evenodd" d="M15.8987 1.25956C16.3113 1.43091 16.6861 1.68203 17.0015 1.99853C17.6388 2.63359 17.9979 3.49563 18.0001 4.3953C18.0022 5.29497 17.6471 6.1587 17.0128 6.79675L12.4862 11.3234C12.1693 11.6407 11.7925 11.8922 11.3778 12.0631C10.9631 12.234 10.5187 12.3211 10.0701 12.3192C9.17052 12.3244 8.3056 11.9724 7.66537 11.3403C7.34887 11.0249 7.09775 10.6502 6.92639 10.2375C6.75504 9.82483 6.66684 9.3824 6.66684 8.93558C6.66684 8.48875 6.75504 8.04632 6.92639 7.63366C7.09775 7.221 7.34887 6.84622 7.66537 6.53081L8.46885 5.72734L9.26667 6.53081L8.46885 7.33429C8.04416 7.75973 7.80587 8.33645 7.8064 8.93758C7.80693 9.53871 8.04624 10.115 8.47168 10.5397C8.89712 10.9644 9.47384 11.2027 10.075 11.2021C10.6761 11.2016 11.2524 10.9623 11.6771 10.5369L16.2037 6.01025C16.4144 5.79959 16.5815 5.54951 16.6955 5.27427C16.8095 4.99904 16.8682 4.70404 16.8682 4.40613C16.8682 4.10822 16.8095 3.81322 16.6955 3.53799C16.5815 3.26275 16.4144 3.01267 16.2037 2.80201C15.9931 2.59135 15.743 2.42425 15.4677 2.31024C15.1925 2.19624 14.8975 2.13756 14.5996 2.13756C14.3017 2.13756 14.0067 2.19624 13.7314 2.31024C13.4562 2.42425 13.2061 2.59135 12.9955 2.80201L12.192 1.99853C12.5074 1.68203 12.8822 1.43091 13.2948 1.25956C13.7075 1.0882 14.1499 1 14.5968 1C15.0436 1 15.486 1.0882 15.8987 1.25956ZM2.32848 11.4817C2.44288 11.757 2.61054 12.007 2.82183 12.2173C3.03213 12.4285 3.2821 12.5962 3.55738 12.7106C3.83267 12.825 4.12784 12.8839 4.42595 12.8839C4.72406 12.8839 5.01923 12.825 5.29451 12.7106C5.56979 12.5962 5.81977 12.4285 6.03007 12.2173L6.83354 13.0207C6.18947 13.6595 5.31888 14.0175 4.4118 14.0166C3.51264 14.0278 2.64575 13.6819 2.00138 13.0547C1.68402 12.7392 1.43218 12.364 1.26032 11.9509C1.08847 11.5377 1 11.0946 1 10.6471C1 10.1996 1.08847 9.7565 1.26032 9.34332C1.43218 8.93013 1.68402 8.555 2.00138 8.23949L6.528 3.71287C7.16653 3.07433 8.03257 2.71561 8.93559 2.71561C9.83862 2.71561 10.7047 3.07433 11.3432 3.71287C11.9817 4.3514 12.3404 5.21744 12.3404 6.12047C12.3404 7.02349 11.9817 7.88953 11.3432 8.52806L10.1436 9.72762L9.34016 8.92414L10.5397 7.70761C10.7512 7.49592 10.9186 7.2444 11.0322 6.9676C11.1458 6.6908 11.2035 6.39422 11.2017 6.095C11.2076 5.79672 11.1535 5.5003 11.0427 5.2233C10.9319 4.9463 10.7666 4.69435 10.5567 4.48239C10.3464 4.27111 10.0964 4.10345 9.82113 3.98905C9.54585 3.87465 9.25068 3.81576 8.95257 3.81576C8.65446 3.81576 8.35929 3.87465 8.084 3.98905C7.80872 4.10345 7.55875 4.27111 7.34845 4.48239L2.82183 9.00902C2.61054 9.21932 2.44288 9.46929 2.32848 9.74457C2.21408 10.0199 2.15519 10.315 2.15519 10.6131C2.15519 10.9112 2.21408 11.2064 2.32848 11.4817Z" fill="#2D87ED"/>
</g>
<defs>
<filter id="filter0_d_952_250" x="0" y="0" width="19.0001" height="15.0168" filterUnits="userSpaceOnUse" color-interpolation-filters="sRGB">
<feFlood flood-opacity="0" result="BackgroundImageFix"/>
<feColorMatrix in="SourceAlpha" type="matrix" values="0 0 0 0 0 0 0 0 0 0 0 0 0 0 0 0 0 0 127 0" result="hardAlpha"/>
<feOffset/>
<feGaussianBlur stdDeviation="0.5"/>
<feComposite in2="hardAlpha" operator="out"/>
<feColorMatrix type="matrix" values="0 0 0 0 0.247059 0 0 0 0 0.443137 0 0 0 0 0.662745 0 0 0 1 0"/>
<feBlend mode="normal" in2="BackgroundImageFix" result="effect1_dropShadow_952_250"/>
<feBlend mode="normal" in="SourceGraphic" in2="effect1_dropShadow_952_250" result="shape"/>
</filter>
</defs>
</svg>
