<svg width="24" height="28" viewBox="0 0 24 28" fill="none" xmlns="http://www.w3.org/2000/svg">
<path d="M21 0C21.7956 0 22.5587 0.36875 23.1213 1.02513C23.6839 1.6815 24 2.57174 24 3.5V24.5C24 25.4283 23.6839 26.3185 23.1213 26.9749C22.5587 27.6313 21.7956 28 21 28H3C2.20435 28 1.44129 27.6313 0.878681 26.9749C0.316071 26.3185 0 25.4283 0 24.5V3.5C0 2.57174 0.316071 1.6815 0.878681 1.02513C1.44129 0.36875 2.20435 0 3 0H21ZM11.25 7.875V18.0128L8.031 14.2555C7.96127 14.1741 7.87848 14.1096 7.78738 14.0656C7.69627 14.0216 7.59862 13.9989 7.5 13.9989C7.40138 13.9989 7.30373 14.0216 7.21262 14.0656C7.12152 14.1096 7.03873 14.1741 6.969 14.2555C6.89927 14.3369 6.84395 14.4334 6.80622 14.5397C6.76848 14.646 6.74905 14.7599 6.74905 14.875C6.74905 14.9901 6.76848 15.104 6.80622 15.2103C6.84395 15.3166 6.89927 15.4131 6.969 15.4945L11.469 20.7445C11.5387 20.826 11.6214 20.8906 11.7126 20.9347C11.8037 20.9789 11.9013 21.0016 12 21.0016C12.0987 21.0016 12.1963 20.9789 12.2875 20.9347C12.3786 20.8906 12.4613 20.826 12.531 20.7445L17.031 15.4945C17.1718 15.3302 17.2509 15.1074 17.2509 14.875C17.2509 14.6426 17.1718 14.4198 17.031 14.2555C16.8902 14.0912 16.6992 13.9989 16.5 13.9989C16.3008 13.9989 16.1098 14.0912 15.969 14.2555L12.75 18.0128V7.875C12.75 7.64293 12.671 7.42038 12.5303 7.25628C12.3897 7.09219 12.1989 7 12 7C11.8011 7 11.6103 7.09219 11.4697 7.25628C11.329 7.42038 11.25 7.64293 11.25 7.875Z" fill="#4B87BD"/>
</svg>
