<svg width="39" height="42" viewBox="0 0 39 42" fill="none" xmlns="http://www.w3.org/2000/svg">
<path d="M34.125 42C35.4179 42 36.6579 41.4469 37.5721 40.4623C38.4864 39.4777 39 38.1424 39 36.75V5.25C39 3.85761 38.4864 2.52226 37.5721 1.53769C36.6579 0.553124 35.4179 0 34.125 0L4.875 0C3.58207 0 2.3421 0.553124 1.42786 1.53769C0.513616 2.52226 0 3.85761 0 5.25V36.75C0 38.1424 0.513616 39.4777 1.42786 40.4623C2.3421 41.4469 3.58207 42 4.875 42H34.125ZM18.2812 30.1875V14.9809L13.0504 20.6168C12.9371 20.7388 12.8025 20.8356 12.6545 20.9016C12.5064 20.9677 12.3478 21.0017 12.1875 21.0017C12.0272 21.0017 11.8686 20.9677 11.7205 20.9016C11.5725 20.8356 11.4379 20.7388 11.3246 20.6168C11.2113 20.4947 11.1214 20.3498 11.0601 20.1904C10.9988 20.031 10.9672 19.8601 10.9672 19.6875C10.9672 19.5149 10.9988 19.344 11.0601 19.1846C11.1214 19.0252 11.2113 18.8803 11.3246 18.7582L18.6371 10.8832C18.7503 10.761 18.8848 10.664 19.0329 10.5979C19.181 10.5317 19.3397 10.4977 19.5 10.4977C19.6603 10.4977 19.819 10.5317 19.9671 10.5979C20.1152 10.664 20.2497 10.761 20.3629 10.8832L27.6754 18.7582C27.9042 19.0047 28.0328 19.339 28.0328 19.6875C28.0328 20.036 27.9042 20.3703 27.6754 20.6168C27.4465 20.8632 27.1361 21.0017 26.8125 21.0017C26.4889 21.0017 26.1785 20.8632 25.9496 20.6168L20.7188 14.9809V30.1875C20.7188 30.5356 20.5903 30.8694 20.3618 31.1156C20.1332 31.3617 19.8232 31.5 19.5 31.5C19.1768 31.5 18.8668 31.3617 18.6382 31.1156C18.4097 30.8694 18.2812 30.5356 18.2812 30.1875Z" fill="#4B87BD"/>
</svg>
