<svg width="43" height="43" viewBox="0 0 43 43" fill="none" xmlns="http://www.w3.org/2000/svg">
<g filter="url(#filter0_d_994_298)">
<path d="M21.5 18.6666C21.1906 18.6666 20.8938 18.7895 20.675 19.0083C20.4562 19.2271 20.3333 19.5239 20.3333 19.8333C20.3333 20.1427 20.4562 20.4395 20.675 20.6583C20.8938 20.877 21.1906 21 21.5 21C21.8094 21 22.1061 20.877 22.3249 20.6583C22.5437 20.4395 22.6666 20.1427 22.6666 19.8333C22.6666 19.5239 22.5437 19.2271 22.3249 19.0083C22.1061 18.7895 21.8094 18.6666 21.5 18.6666Z" fill="#D79F48"/>
<path fill-rule="evenodd" clip-rule="evenodd" d="M32 14.4457L22.6667 9.779V7H29.6667V0H20.3333V9.779L11 14.4457V18.6667H6.33333V32.6667H4V35H18V25.6667H25V35H39V32.6667H36.6667V18.6667H32V14.4457ZM34.3333 32.6667V21H32V32.6667H34.3333ZM11 32.6667H8.66667V21H11V32.6667ZM18 19.8333C18 18.9051 18.3687 18.0148 19.0251 17.3585C19.6815 16.7021 20.5717 16.3333 21.5 16.3333C22.4283 16.3333 23.3185 16.7021 23.9749 17.3585C24.6313 18.0148 25 18.9051 25 19.8333C25 20.7616 24.6313 21.6518 23.9749 22.3082C23.3185 22.9646 22.4283 23.3333 21.5 23.3333C20.5717 23.3333 19.6815 22.9646 19.0251 22.3082C18.3687 21.6518 18 20.7616 18 19.8333Z" fill="#D79F48"/>
<path d="M22.6666 35V28H20.3333V35H22.6666Z" fill="#D79F48"/>
</g>
<defs>
<filter id="filter0_d_994_298" x="0" y="0" width="43" height="43" filterUnits="userSpaceOnUse" color-interpolation-filters="sRGB">
<feFlood flood-opacity="0" result="BackgroundImageFix"/>
<feColorMatrix in="SourceAlpha" type="matrix" values="0 0 0 0 0 0 0 0 0 0 0 0 0 0 0 0 0 0 127 0" result="hardAlpha"/>
<feOffset dy="4"/>
<feGaussianBlur stdDeviation="2"/>
<feComposite in2="hardAlpha" operator="out"/>
<feColorMatrix type="matrix" values="0 0 0 0 0 0 0 0 0 0 0 0 0 0 0 0 0 0 0.25 0"/>
<feBlend mode="normal" in2="BackgroundImageFix" result="effect1_dropShadow_994_298"/>
<feBlend mode="normal" in="SourceGraphic" in2="effect1_dropShadow_994_298" result="shape"/>
</filter>
</defs>
</svg>
